<svg width="105" height="4" viewBox="0 0 105 4" fill="none" xmlns="http://www.w3.org/2000/svg">
<rect width="105" height="4" fill="#F5F5F5"/>
<g id="02a | Products-Still-UI-v4" clip-path="url(#clip0_535_11743)">
<rect width="1440" height="6413" transform="translate(-739 -2601)" fill="#FAF5FF"/>
<g id="Nutrition-Table">
<g id="Group 6">
<g id="Tab-items-table">
<g id="Tab-item">
<path id="Underline" d="M1 2C3.28889 0.666667 5.57778 0.666667 7.86667 2C10.1556 3.33333 12.4444 3.33333 14.7333 2C17.0222 0.666667 19.3111 0.666667 21.6 2C23.8889 3.33333 26.1778 3.33333 28.4667 2C30.7556 0.666667 33.0444 0.666667 35.3333 2C37.6222 3.33333 39.9111 3.33333 42.2 2C44.4889 0.666667 46.7778 0.666667 49.0667 2C51.3556 3.33333 53.6444 3.33333 55.9333 2C58.2222 0.666667 60.5111 0.666667 62.8 2C65.0889 3.33333 67.3778 3.33333 69.6667 2C71.9556 0.666667 74.2444 0.666667 76.5333 2C78.8222 3.33333 81.1111 3.33333 83.4 2C85.6889 0.666667 87.9778 0.666667 90.2667 2C92.5556 3.33333 94.8444 3.33333 97.1333 2C99.4222 0.666667 101.711 0.666667 104 2" stroke="#552B8B" stroke-width="2"/>
</g>
</g>
</g>
</g>
</g>
<defs>
<clipPath id="clip0_535_11743">
<rect width="1440" height="6413" fill="white" transform="translate(-739 -2601)"/>
</clipPath>
</defs>
</svg>
